{
  "accessors": [
    {
      "bufferView": 2,
      "componentType": 5126,
      "count": 9848,
      "max": [
        0.13075600564479828,
        0.03805600106716156,
        0.8268839716911316
      ],
      "min": [
        -0.05749500170350075,
        -0.03885100036859512,
        -0.029673000797629356
      ],
      "type": "VEC3"
    },
    {
      "bufferView": 2,
      "byteOffset": 118176,
      "componentType": 5126,
      "count": 9848,
      "max": [
        1.0,
        1.0,
        1.0
      ],
      "min": [
        -1.0,
        -1.0,
        -1.0
      ],
      "type": "VEC3"
    },
    {
      "bufferView": 3,
      "componentType": 5126,
      "count": 9848,
      "max": [
        1.0,
        1.0,
        1.0,
        1.0
      ],
      "min": [
        -1.0,
        -1.0,
        -0.9999999403953552,
        -1.0
      ],
      "type": "VEC4"
    },
    {
      "bufferView": 1,
      "componentType": 5126,
      "count": 9848,
      "max": [
        0.9873149991035461,
        0.8823649883270264
      ],
      "min": [
        0.0024500000290572643,
        0.0024500000290572643
      ],
      "type": "VEC2"
    },
    {
      "bufferView": 0,
      "componentType": 5125,
      "count": 32457,
      "type": "SCALAR"
    },
    {
      "bufferView": 2,
      "byteOffset": 236352,
      "componentType": 5126,
      "count": 9944,
      "max": [
        0.16626699268817902,
        0.03635299950838089,
        0.8062270283699036
      ],
      "min": [
        -0.16610899567604065,
        -0.039802998304367065,
        -0.1791049987077713
      ],
      "type": "VEC3"
    },
    {
      "bufferView": 2,
      "byteOffset": 355680,
      "componentType": 5126,
      "count": 9944,
      "max": [
        1.0,
        1.0,
        1.0
      ],
      "min": [
        -1.0,
        -1.0,
        -1.0
      ],
      "type": "VEC3"
    },
    {
      "bufferView": 3,
      "byteOffset": 157568,
      "componentType": 5126,
      "count": 9944,
      "max": [
        1.0,
        1.0,
        1.0,
        1.0
      ],
      "min": [
        -1.0,
        -1.0,
        -1.0,
        -1.0
      ],
      "type": "VEC4"
    },
    {
      "bufferView": 1,
      "byteOffset": 78784,
      "componentType": 5126,
      "count": 9944,
      "max": [
        0.8825209736824036,
        0.9946349859237671
      ],
      "min": [
        0.0013299999991431832,
        0.0024500000290572643
      ],
      "type": "VEC2"
    },
    {
      "bufferView": 0,
      "byteOffset": 129828,
      "componentType": 5125,
      "count": 39204,
      "type": "SCALAR"
    },
    {
      "bufferView": 2,
      "byteOffset": 475008,
      "componentType": 5126,
      "count": 9927,
      "max": [
        0.127033993601799,
        0.03434799984097481,
        0.8062270283699036
      ],
      "min": [
        -0.05003400146961212,
        -0.041492998600006104,
        -0.06860099732875824
      ],
      "type": "VEC3"
    },
    {
      "bufferView": 2,
      "byteOffset": 594132,
      "componentType": 5126,
      "count": 9927,
      "max": [
        1.0,
        1.0,
        1.0
      ],
      "min": [
        -1.0,
        -1.0,
        -1.0
      ],
      "type": "VEC3"
    },
    {
      "bufferView": 3,
      "byteOffset": 316672,
      "componentType": 5126,
      "count": 9927,
      "max": [
        1.0,
        1.0,
        1.0,
        1.0
      ],
      "min": [
        -1.0,
        -1.0,
        -1.0,
        -1.0
      ],
      "type": "VEC4"
    },
    {
      "bufferView": 1,
      "byteOffset": 158336,
      "componentType": 5126,
      "count": 9927,
      "max": [
        0.8808900117874146,
        0.8825830221176147
      ],
      "min": [
        0.002950000111013651,
        0.49997401237487793
      ],
      "type": "VEC2"
    },
    {
      "bufferView": 0,
      "byteOffset": 286644,
      "componentType": 5125,
      "count": 28467,
      "type": "SCALAR"
    },
    {
      "bufferView": 2,
      "byteOffset": 713256,
      "componentType": 5126,
      "count": 9989,
      "max": [
        0.14497099816799164,
        0.03434799984097481,
        0.8007619976997375
      ],
      "min": [
        -0.04806999862194061,
        -0.03885100036859512,
        -0.14079999923706055
      ],
      "type": "VEC3"
    },
    {
      "bufferView": 2,
      "byteOffset": 833124,
      "componentType": 5126,
      "count": 9989,
      "max": [
        1.0,
        1.0,
        1.0
      ],
      "min": [
        -1.0,
        -1.0,
        -1.0
      ],
      "type": "VEC3"
    },
    {
      "bufferView": 3,
      "byteOffset": 475504,
      "componentType": 5126,
      "count": 9989,
      "max": [
        0.9998783469200134,
        1.0,
        1.0,
        1.0
      ],
      "min": [
        -1.0,
        -1.0,
        -1.0,
        -1.0
      ],
      "type": "VEC4"
    },
    {
      "bufferView": 1,
      "byteOffset": 237752,
      "componentType": 5126,
      "count": 9989,
      "max": [
        0.8808900117874146,
        0.8825830221176147
      ],
      "min": [
        0.002950000111013651,
        0.48667800426483154
      ],
      "type": "VEC2"
    },
    {
      "bufferView": 0,
      "byteOffset": 400512,
      "componentType": 5125,
      "count": 25596,
      "type": "SCALAR"
    },
    {
      "bufferView": 2,
      "byteOffset": 952992,
      "componentType": 5126,
      "count": 2611,
      "max": [
        0.08310899883508682,
        0.03389500081539154,
        0.800320029258728
      ],
      "min": [
        -0.05003400146961212,
        -0.03885100036859512,
        -0.13995100557804108
      ],
      "type": "VEC3"
    },
    {
      "bufferView": 2,
      "byteOffset": 984324,
      "componentType": 5126,
      "count": 2611,
      "max": [
        1.0,
        1.0,
        1.0
      ],
      "min": [
        -1.0,
        -1.0,
        -1.0
      ],
      "type": "VEC3"
    },
    {
      "bufferView": 3,
      "byteOffset": 635328,
      "componentType": 5126,
      "count": 2611,
      "max": [
        0.9999970197677612,
        1.0,
        1.0,
        1.0
      ],
      "min": [
        -1.0,
        -0.9999998807907104,
        -1.0,
        -1.0
      ],
      "type": "VEC4"
    },
    {
      "bufferView": 1,
      "byteOffset": 317664,
      "componentType": 5126,
      "count": 2611,
      "max": [
        0.8656250238418579,
        0.8665689826011658
      ],
      "min": [
        0.05595799908041954,
        0.5283120274543762
      ],
      "type": "VEC2"
    },
    {
      "bufferView": 0,
      "byteOffset": 502896,
      "componentType": 5125,
      "count": 6606,
      "type": "SCALAR"
    }
  ],
  "asset": {
    "extras": {
      "author": "Ryan_Nein (https://sketchfab.com/Ryan_Nein)",
      "license": "CC-BY-4.0 (http://creativecommons.org/licenses/by/4.0/)",
      "source": "https://sketchfab.com/3d-models/gibson-sg-guitar-2007af7561fe46958d1f7e92dff8a40d",
      "title": "Gibson SG Guitar"
    },
    "generator": "Sketchfab-12.97.0",
    "version": "2.0"
  },
  "bufferViews": [
    {
      "buffer": 0,
      "byteLength": 529320,
      "name": "floatBufferViews",
      "target": 34963
    },
    {
      "buffer": 0,
      "byteLength": 338552,
      "byteOffset": 529320,
      "byteStride": 8,
      "name": "floatBufferViews",
      "target": 34962
    },
    {
      "buffer": 0,
      "byteLength": 1015656,
      "byteOffset": 867872,
      "byteStride": 12,
      "name": "floatBufferViews",
      "target": 34962
    },
    {
      "buffer": 0,
      "byteLength": 677104,
      "byteOffset": 1883528,
      "byteStride": 16,
      "name": "floatBufferViews",
      "target": 34962
    }
  ],
  "buffers": [
    {
      "byteLength": 2560632,
      "uri": "scene.bin"
    }
  ],
  "images": [
    {
      "uri": "textures/Material.001_baseColor.png"
    },
    {
      "uri": "textures/Material.001_metallicRoughness.png"
    },
    {
      "uri": "textures/Material.001_normal.png"
    }
  ],
  "materials": [
    {
      "doubleSided": true,
      "name": "Material.001",
      "normalTexture": {
        "index": 2,
        "scale": 0.7177164730406796
      },
      "occlusionTexture": {
        "index": 1
      },
      "pbrMetallicRoughness": {
        "baseColorTexture": {
          "index": 0
        },
        "metallicRoughnessTexture": {
          "index": 1
        }
      }
    }
  ],
  "meshes": [
    {
      "name": "Object_0",
      "primitives": [
        {
          "attributes": {
            "NORMAL": 1,
            "POSITION": 0,
            "TANGENT": 2,
            "TEXCOORD_0": 3
          },
          "indices": 4,
          "material": 0,
          "mode": 4
        }
      ]
    },
    {
      "name": "Object_1",
      "primitives": [
        {
          "attributes": {
            "NORMAL": 6,
            "POSITION": 5,
            "TANGENT": 7,
            "TEXCOORD_0": 8
          },
          "indices": 9,
          "material": 0,
          "mode": 4
        }
      ]
    },
    {
      "name": "Object_2",
      "primitives": [
        {
          "attributes": {
            "NORMAL": 11,
            "POSITION": 10,
            "TANGENT": 12,
            "TEXCOORD_0": 13
          },
          "indices": 14,
          "material": 0,
          "mode": 4
        }
      ]
    },
    {
      "name": "Object_3",
      "primitives": [
        {
          "attributes": {
            "NORMAL": 16,
            "POSITION": 15,
            "TANGENT": 17,
            "TEXCOORD_0": 18
          },
          "indices": 19,
          "material": 0,
          "mode": 4
        }
      ]
    },
    {
      "name": "Object_4",
      "primitives": [
        {
          "attributes": {
            "NORMAL": 21,
            "POSITION": 20,
            "TANGENT": 22,
            "TEXCOORD_0": 23
          },
          "indices": 24,
          "material": 0,
          "mode": 4
        }
      ]
    }
  ],
  "nodes": [
    {
      "children": [
        1
      ],
      "matrix": [
        1.0,
        0.0,
        0.0,
        0.0,
        0.0,
        2.220446049250313e-16,
        -1.0,
        0.0,
        0.0,
        1.0,
        2.220446049250313e-16,
        0.0,
        0.0,
        0.0,
        0.0,
        1.0
      ],
      "name": "Sketchfab_model"
    },
    {
      "children": [
        2,
        3,
        4,
        5,
        6
      ],
      "name": "SG.obj.cleaner.materialmerger.gles"
    },
    {
      "mesh": 0,
      "name": "Object_2"
    },
    {
      "mesh": 1,
      "name": "Object_3"
    },
    {
      "mesh": 2,
      "name": "Object_4"
    },
    {
      "mesh": 3,
      "name": "Object_5"
    },
    {
      "mesh": 4,
      "name": "Object_6"
    }
  ],
  "samplers": [
    {
      "magFilter": 9729,
      "minFilter": 9987,
      "wrapS": 10497,
      "wrapT": 10497
    }
  ],
  "scene": 0,
  "scenes": [
    {
      "name": "Sketchfab_Scene",
      "nodes": [
        0
      ]
    }
  ],
  "textures": [
    {
      "sampler": 0,
      "source": 0
    },
    {
      "sampler": 0,
      "source": 1
    },
    {
      "sampler": 0,
      "source": 2
    }
  ]
}
